<?xml version="1.0" encoding="utf-8"?>
<!-- Generator: Adobe Illustrator 16.0.0, SVG Export Plug-In . SVG Version: 6.00 Build 0)  -->
<!DOCTYPE svg PUBLIC "-//W3C//DTD SVG 1.1//EN" "http://www.w3.org/Graphics/SVG/1.1/DTD/svg11.dtd">
<svg version="1.1" id="Layer_1" xmlns="http://www.w3.org/2000/svg" xmlns:xlink="http://www.w3.org/1999/xlink" x="0px" y="0px"
	 width="746px" height="100px" viewBox="0 0 746 100" enable-background="new 0 0 746 100" xml:space="preserve">
<rect x="-45.031" y="-2.653" width="0" height="0"/>
<g>
	<path fill="#C03D27" d="M50,0C22.386,0,0,22.385,0,50c0,20.245,12.04,37.668,29.344,45.531c5.513-3.427,7.617-5.142,10.719-9.072
		c2.756-3.604,4.028-5.936,6.36-11.978L29.25,32.398h-3.816v-4.452h22.366v4.452h-5.512l10.494,25.653l9.965-25.653h-6.679v-4.452
		h16.324v4.452h-4.346L50.346,78.403c-2.65,6.996-6.467,14.31-9.859,18.974c-0.308,0.445-0.677,0.939-1.099,1.483
		C42.809,99.601,46.357,100,50,100c27.614,0,50-22.386,50-50C100,22.385,77.614,0,50,0z"/>
	<path fill="#FFFFFF" d="M50.346,78.403l17.702-46.005h4.346v-4.452H56.069v4.452h6.679l-9.965,25.653L42.289,32.398h5.512v-4.452
		H25.435v4.452h3.816l17.172,42.083c-2.332,6.042-3.604,8.374-6.36,11.978c-3.103,3.931-5.206,5.646-10.719,9.072
		c3.185,1.447,6.544,2.572,10.044,3.329c0.422-0.544,0.791-1.038,1.099-1.483C43.879,92.713,47.695,85.399,50.346,78.403z"/>
</g>
<g>
	<path d="M151.729,75h-17.138v-2.664h5.4V53.11l-14.905-22.97h-4.176v-2.664h17.785v2.664h-6.553l12.386,18.866l11.449-18.866
		h-6.553v-2.664h14.401v2.664h-3.745l-13.825,22.538v19.658h5.473V75z"/>
	<path d="M206.737,75h-32.763v-2.664h5.4V30.14h-5.4v-2.664h28.73V25.46h3.312v11.449h-3.24v-6.121h-17.065v18.434h13.609v-5.4
		l3.312-0.072v14.185l-3.312,0.071v-5.544h-13.609V71.76h17.714v-6.336h3.312V75z"/>
	<path d="M225.382,75.648h-3.384V62.688h3.384v5.688c4.393,2.953,6.337,3.673,9.505,3.673c5.761,0,9.649-3.024,9.649-7.561
		c0-4.104-2.809-7.129-10.585-11.161c-9.073-4.752-12.169-8.353-12.169-14.257c0-7.128,6.048-12.457,14.185-12.457
		c3.601,0,6.265,0.648,8.569,2.016v-2.592h3.312v12.313h-3.312v-5.112c-3.673-2.448-5.473-3.168-8.353-3.168
		c-4.896,0-8.065,2.952-8.065,7.417c0,3.672,2.089,5.76,11.089,10.945c9.001,5.185,11.594,8.353,11.594,14.258
		c0,7.488-6.193,13.249-14.33,13.249c-4.536,0-7.488-0.937-11.089-3.241V75.648z"/>
	<path d="M271.895,61.175h-2.881l-2.736-39.243h8.354L271.895,61.175z M270.454,75.792c-2.232,0-4.104-1.872-4.104-4.104
		s1.872-4.104,4.104-4.104s4.104,1.871,4.104,4.104S272.687,75.792,270.454,75.792z"/>
	<path d="M367.586,75h-17.137v-2.664h5.4V36.909L338.208,75.72l-17.714-39.603v36.219h5.473V75h-14.545v-2.664h5.472V30.14h-5.472
		v-2.664h11.593l16.417,36.723l16.922-36.723h11.232v2.664h-5.4v42.196h5.4V75z"/>
	<path d="M424.896,75h-16.418v-2.664h5.761l-5.04-12.961l-18.434-0.072l-5.257,12.961h5.977V75h-13.753v-2.736h3.744l18.722-46.3
		h2.592l18.002,46.3h4.104V75z M407.975,55.918l-7.704-20.233l-8.137,20.233H407.975z"/>
	<path d="M476.232,73.199c-6.409,2.089-9.938,2.737-14.905,2.737c-7.489,0-12.962-1.944-17.714-6.121
		c-5.328-4.753-8.353-11.521-8.353-18.649c0-14.186,10.873-24.554,25.562-24.554c4.32,0,7.489,0.576,11.953,2.232v-2.809h3.312
		v12.241h-3.312v-4.681c-4.752-2.304-8.353-3.24-12.385-3.24c-9.937,0-18.002,9.289-18.002,20.81
		c0,11.809,9.217,21.098,20.954,21.098c2.16,0,3.456-0.216,6.553-1.008V58.654h-6.12V55.99h17.857v2.664h-5.4V73.199z"/>
	<path d="M537.792,75h-16.418v-2.664h5.761l-5.04-12.961l-18.434-0.072l-5.257,12.961h5.977V75h-13.753v-2.736h3.744l18.722-46.3
		h2.592l18.002,46.3h4.104V75z M520.87,55.918l-7.704-20.233l-8.137,20.233H520.87z"/>
	<path d="M588.406,75h-39.604v-2.16l29.522-41.691h-26.138v5.76h-3.385V25.46h3.385v2.016h34.779v2.232L557.588,71.4h27.435v-7.489
		h3.384V75z"/>
	<path d="M619.365,75h-17.138v-2.664h5.4V30.14h-5.4v-2.664h17.138v2.664h-5.4v42.196h5.4V75z"/>
	<path d="M672.935,75.792h-2.232l-27.65-38.019v34.563h5.473V75h-14.546v-2.664h5.473V32.876l-1.944-2.736h-4.968v-2.664h10.44
		l26.354,36.147V30.14h-5.473v-2.664h14.474v2.664h-5.4V75.792z"/>
	<path d="M724.342,75h-32.763v-2.664h5.4V30.14h-5.4v-2.664h28.73V25.46h3.312v11.449h-3.24v-6.121h-17.065v18.434h13.609v-5.4
		l3.312-0.072v14.185l-3.312,0.071v-5.544h-13.609V71.76h17.714v-6.336h3.312V75z"/>
</g>
</svg>
