<?xml version="1.0" encoding="utf-8"?>
<!-- Generator: Adobe Illustrator 16.0.4, SVG Export Plug-In . SVG Version: 6.00 Build 0)  -->
<!DOCTYPE svg PUBLIC "-//W3C//DTD SVG 1.1//EN" "http://www.w3.org/Graphics/SVG/1.1/DTD/svg11.dtd">
<svg version="1.1" id="Layer_1" xmlns="http://www.w3.org/2000/svg" xmlns:xlink="http://www.w3.org/1999/xlink" x="0px" y="0px"
	 width="644.5px" height="100px" viewBox="0 0 644.5 100" enable-background="new 0 0 644.5 100" xml:space="preserve">
<polygon points="-45.031,-2.653 -45.031,-2.653 -45.031,-2.653 "/>
<g>
	<path fill="#C03D27" d="M50,0C22.386,0,0,22.385,0,50c0,20.245,12.04,37.668,29.344,45.531c5.513-3.428,7.617-5.143,10.719-9.072
		c2.756-3.604,4.028-5.936,6.36-11.979L29.25,32.398h-3.816v-4.452H47.8v4.452h-5.512l10.494,25.653l9.965-25.653h-6.679v-4.452
		h16.324v4.452h-4.346l-17.7,46.004c-2.65,6.996-6.467,14.311-9.859,18.975c-0.308,0.445-0.677,0.939-1.099,1.482
		C42.809,99.602,46.357,100,50,100c27.614,0,50-22.386,50-50C100,22.385,77.614,0,50,0z"/>
	<path fill="#FFFFFF" d="M50.346,78.402l17.702-46.004h4.346v-4.452H56.069v4.452h6.679l-9.965,25.653L42.289,32.398h5.512v-4.452
		H25.435v4.452h3.816L46.423,74.48c-2.332,6.043-3.604,8.375-6.36,11.979c-3.103,3.932-5.206,5.646-10.719,9.072
		c3.185,1.447,6.544,2.572,10.044,3.328c0.422-0.543,0.791-1.037,1.099-1.482C43.879,92.713,47.695,85.398,50.346,78.402z"/>
</g>
<g>
	<path d="M141.533,71h-14.6v-2.27h4.601V52.352l-12.698-19.568h-3.558v-2.27h15.151v2.27h-5.582l10.551,16.072l9.753-16.072h-5.583
		v-2.27h12.269v2.27h-3.19l-11.778,19.2V68.73h4.663L141.533,71L141.533,71z"/>
	<path d="M188.394,71h-27.911v-2.27h4.6V32.784h-4.6v-2.27h24.475v-1.717h2.821v9.753h-2.76v-5.214h-14.538V49.04h11.593v-4.601
		l2.822-0.062v12.085l-2.822,0.06V51.8h-11.593v16.44h15.09v-5.398h2.822V71z"/>
	<path d="M204.277,71.553h-2.882V60.511h2.882v4.847c3.743,2.516,5.398,3.129,8.098,3.129c4.908,0,8.22-2.576,8.22-6.441
		c0-3.496-2.393-6.073-9.018-9.508c-7.729-4.049-10.367-7.116-10.367-12.146c0-6.072,5.152-10.612,12.084-10.612
		c3.068,0,5.337,0.552,7.3,1.718v-2.208h2.821v10.489h-2.821v-4.355c-3.129-2.085-4.663-2.699-7.116-2.699
		c-4.171,0-6.871,2.515-6.871,6.318c0,3.128,1.78,4.907,9.447,9.325c7.668,4.417,9.877,7.115,9.877,12.146
		c0,6.38-5.276,11.288-12.208,11.288c-3.864,0-6.379-0.799-9.447-2.762V71.553L204.277,71.553z"/>
	<path d="M243.902,59.223h-2.455l-2.331-33.431h7.117L243.902,59.223z M242.675,71.675c-1.901,0-3.497-1.595-3.497-3.497
		c0-1.9,1.595-3.496,3.497-3.496s3.496,1.595,3.496,3.496C246.171,70.08,244.577,71.675,242.675,71.675z"/>
	<path d="M325.422,71h-14.6v-2.27h4.601V38.55l-15.028,33.063l-15.091-33.738V68.73h4.662V71h-12.391v-2.27h4.661V32.784h-4.661
		v-2.27h9.876l13.986,31.285l14.416-31.285h9.568v2.27h-4.601V68.73h4.601V71z"/>
	<path d="M374.244,71h-13.986v-2.27h4.907l-4.294-11.041l-15.703-0.062l-4.479,11.042h5.091V71h-11.716v-2.331h3.19l15.948-39.443
		h2.209l15.336,39.443h3.496V71z M359.828,54.744l-6.562-17.237l-6.932,17.237H359.828z"/>
	<path d="M417.977,69.466c-5.459,1.78-8.466,2.331-12.697,2.331c-6.38,0-11.042-1.655-15.09-5.215
		c-4.539-4.048-7.117-9.814-7.117-15.887c0-12.084,9.264-20.917,21.777-20.917c3.68,0,6.379,0.491,10.183,1.902v-2.393h2.821v10.428
		h-2.821v-3.988c-4.048-1.963-7.116-2.76-10.552-2.76c-8.465,0-15.336,7.914-15.336,17.729c0,10.061,7.854,17.974,17.852,17.974
		c1.84,0,2.943-0.185,5.582-0.859V57.075h-5.213v-2.27h15.212v2.27h-4.601V69.466L417.977,69.466z"/>
	<path d="M470.42,71h-13.986v-2.27h4.907l-4.294-11.041l-15.703-0.062l-4.479,11.042h5.092V71H430.24v-2.331h3.19l15.948-39.443
		h2.209l15.336,39.443h3.496V71z M456.004,54.744l-6.562-17.237l-6.932,17.237H456.004z"/>
	<path d="M513.538,71h-33.739v-1.84l25.15-35.517h-22.268v4.907h-2.883v-9.753h2.883v1.717h29.629v1.901l-25.026,35.518h23.372
		v-6.381h2.883L513.538,71L513.538,71z"/>
	<path d="M539.912,71h-14.601v-2.27h4.601V32.784h-4.601v-2.27h14.601v2.27h-4.601V68.73h4.601V71z"/>
	<path d="M585.549,71.675h-1.902l-23.555-32.389V68.73h4.662V71h-12.391v-2.27h4.662V35.115l-1.656-2.331h-4.232v-2.27h8.894
		l22.451,30.794V32.784h-4.662v-2.27h12.33v2.27h-4.601V71.675L585.549,71.675z"/>
	<path d="M629.342,71h-27.91v-2.27h4.6V32.784h-4.6v-2.27h24.475v-1.717h2.822v9.753h-2.762v-5.214H611.43V49.04h11.594v-4.601
		l2.822-0.062v12.085l-2.822,0.06V51.8H611.43v16.44h15.091v-5.398h2.821V71z"/>
</g>
</svg>
