<?xml version="1.0" encoding="utf-8"?>
<!-- Generator: Adobe Illustrator 16.0.0, SVG Export Plug-In . SVG Version: 6.00 Build 0)  -->
<!DOCTYPE svg PUBLIC "-//W3C//DTD SVG 1.1//EN" "http://www.w3.org/Graphics/SVG/1.1/DTD/svg11.dtd">
<svg version="1.1" id="Layer_1" xmlns="http://www.w3.org/2000/svg" xmlns:xlink="http://www.w3.org/1999/xlink" x="0px" y="0px"
	 width="255.241px" height="195.64px" viewBox="0 0 255.241 195.64" enable-background="new 0 0 255.241 195.64"
	 xml:space="preserve">
<rect fill="#C03D27" width="255.241" height="195.64"/>
<g>
	<g>
		<polygon fill="#FFFFFF" points="233.159,129.007 239.204,32.113 215.559,32.113 222.315,129.007 		"/>
		<path fill="#FFFFFF" d="M227.292,144.829c-5.512,0-10.133,4.623-10.133,10.135c0,5.51,4.621,10.133,10.133,10.133
			s10.133-4.623,10.133-10.133C237.424,149.452,232.803,144.829,227.292,144.829z"/>
		<g>
			<path fill="#C03D27" d="M139.29,106.251c0-10.669-5.156-18.136-12.444-18.136c-9.423,0-16.89,8.891-18.49,22.401h30.935V106.251z
				"/>
			<path fill="#C03D27" d="M134.134,155.319c5.833,0,9.296-1.123,19.556-7.082v-8.74h9.779v4.799
				c0,7.111,9.955,13.512,20.979,13.512c8.533,0,13.867-3.732,13.867-9.422c0-7.113-4.445-10.668-21.867-17.246
				c-9.094-3.469-15.17-7.086-18.885-11.555h-49.386C108.177,141.63,118.133,155.319,134.134,155.319z"/>
			<path fill="#FFFFFF" d="M86.492,127.946c1.824,22.66,17.127,37.506,39.464,37.506c10.222,0,16.251-1.443,27.734-7.377v6.666
				h8.711v-6.4c5.334,4.801,12.623,7.111,22.936,7.111c17.955,0,28.268-9.066,28.268-24.711c0-12.803-5.867-19.557-23.289-26.49
				c-18.846-7.467-21.691-9.602-21.691-16.18c0-6.044,5.156-9.956,12.801-9.956c8.891,0,17.602,5.689,17.602,11.733
				c0,1.602-0.355,3.912-1.066,5.867h9.066l4.445-25.601h-9.244l-1.068,6.4c-5.156-4.268-11.201-6.045-19.912-6.045
				c-12.098,0-21.33,4.918-25.686,13.033c-5.877-8.221-15.902-13.033-28.539-13.033c-6.953,0-13.233,1.374-18.666,3.926v-1.793
				H80.977v7.469h11.2l-16.711,43.022L57.865,90.072h9.245v-7.469H29.597v7.469h6.4l28.801,70.581
				c-3.911,10.133-6.044,14.045-10.667,20.09c-5.106,6.468-8.598,9.357-17.466,14.896h20.52c5.044-7.726,10.349-18.264,14.191-28.41
				L86.492,127.946z M126.845,88.115c7.289,0,12.444,7.467,12.444,18.136v4.266h-30.935
				C109.955,97.006,117.422,88.115,126.845,88.115z M157.563,119.585c3.715,4.469,9.791,8.086,18.885,11.555
				c17.422,6.578,21.867,10.133,21.867,17.246c0,5.689-5.334,9.422-13.867,9.422c-11.023,0-20.979-6.4-20.979-13.512v-4.799h-9.779
				v8.74c-10.26,5.959-13.723,7.082-19.556,7.082c-16.001,0-25.957-13.689-25.957-35.734H157.563z"/>
		</g>
	</g>
</g>
</svg>
